<?xml version="1.0" standalone="no"?>
<!DOCTYPE svg PUBLIC "-//W3C//DTD SVG 20010904//EN"
 "http://www.w3.org/TR/2001/REC-SVG-20010904/DTD/svg10.dtd">
<svg version="1.0" xmlns="http://www.w3.org/2000/svg"
 width="931.000000pt" height="1280.000000pt" viewBox="0 0 931.000000 1280.000000"
 preserveAspectRatio="xMidYMid meet">
<metadata>
Created by potrace 1.15, written by Peter Selinger 2001-2017
</metadata>
<g transform="translate(0.000000,1280.000000) scale(0.100000,-0.100000)"
fill="#000000" stroke="none">
<path d="M1646 12356 l-316 -445 1 -138 c0 -76 4 -221 8 -323 4 -102 6 -187 5
-189 -3 -4 -199 -40 -679 -127 -143 -26 -265 -52 -271 -58 -6 -6 -98 -228
-203 -493 l-192 -481 20 -159 c12 -87 34 -261 51 -388 17 -126 44 -333 60
-460 37 -285 65 -495 85 -645 10 -78 15 -200 15 -378 l0 -263 39 -152 c86
-333 151 -583 158 -608 6 -20 277 -240 1043 -848 l1035 -821 273 -375 272
-376 -50 -1257 c-28 -691 -68 -1705 -90 -2253 -22 -549 -40 -1024 -40 -1058
l0 -61 2575 0 2575 0 0 62 c0 34 -4 123 -10 197 -5 75 -14 213 -20 306 -12
194 -25 407 -40 643 -5 89 -15 235 -20 325 -6 89 -15 230 -20 312 -9 125 -28
742 -66 2055 l-6 215 102 280 c56 154 125 330 152 390 28 61 124 281 213 490
188 441 160 383 422 872 l204 381 30 129 c16 70 57 247 92 393 l62 265 6 465
c7 537 3 507 119 965 68 270 70 281 55 313 -8 18 -46 158 -84 310 -64 261 -68
281 -60 347 5 53 0 140 -23 355 l-30 285 -85 264 c-79 248 -87 268 -131 321
-37 44 -62 94 -116 227 l-68 170 -152 61 c-83 33 -277 112 -431 175 l-280 114
-159 -89 c-88 -49 -165 -87 -172 -86 -7 2 -118 100 -246 219 -319 295 -299
279 -358 288 -37 6 -60 17 -84 40 -37 36 -24 34 -416 61 -91 6 -218 15 -282
20 -198 17 -179 22 -300 -81 l-107 -90 -328 292 c-180 161 -339 302 -353 315
-26 24 -40 27 -390 74 -85 12 -215 30 -289 41 -74 10 -146 19 -160 19 -21 0
-76 -45 -247 -201 -120 -110 -253 -232 -296 -270 l-76 -69 -287 308 -286 309
-376 6 c-207 4 -440 7 -518 7 l-143 0 -316 -444z"/>
</g>
</svg>
