<?xml version="1.0" standalone="no"?>
<!DOCTYPE svg PUBLIC "-//W3C//DTD SVG 20010904//EN"
 "http://www.w3.org/TR/2001/REC-SVG-20010904/DTD/svg10.dtd">
<svg version="1.0" xmlns="http://www.w3.org/2000/svg"
 width="1147.000000pt" height="1280.000000pt" viewBox="0 0 1147.000000 1280.000000"
 preserveAspectRatio="xMidYMid meet">
<metadata>
Created by potrace 1.15, written by Peter Selinger 2001-2017
</metadata>
<g transform="translate(0.000000,1280.000000) scale(0.100000,-0.100000)"
fill="#000000" stroke="none">
<path d="M9633 12790 c-512 -65 -977 -338 -1269 -746 -73 -103 -145 -236 -204
-379 -121 -292 -163 -396 -272 -680 -154 -400 -258 -645 -373 -875 -235 -470
-478 -818 -815 -1164 -202 -208 -322 -310 -817 -693 l-181 -141 -264 205
c-400 312 -589 482 -797 718 -447 505 -718 999 -1083 1970 -117 310 -268 678
-329 798 -218 434 -670 785 -1164 905 -170 42 -217 47 -425 46 -232 0 -318
-14 -535 -85 -507 -164 -861 -543 -1029 -1099 -52 -172 -70 -307 -70 -525 -1
-238 22 -384 100 -643 156 -519 597 -982 1104 -1160 187 -65 256 -76 480 -77
200 0 208 1 340 34 251 63 462 147 588 233 26 18 106 89 178 159 138 134 176
157 240 144 98 -18 238 -228 574 -865 352 -667 663 -1182 1028 -1706 l71 -100
-1137 -1605 c-625 -882 -1338 -1889 -1584 -2236 -246 -347 -471 -671 -499
-719 -190 -329 -314 -670 -365 -1006 -21 -141 -24 -454 -6 -583 41 -277 138
-542 297 -805 53 -88 71 -110 89 -110 25 0 -147 -231 2676 3610 826 1125 1510
2053 1519 2062 15 16 28 1 186 -215 297 -407 839 -1148 2105 -2877 678 -927
1380 -1886 1559 -2132 l326 -447 62 -1 61 0 55 93 c170 286 259 560 288 887
35 396 -69 858 -290 1300 -91 181 -123 231 -341 540 -103 146 -447 634 -765
1085 -657 931 -1251 1773 -1829 2593 l-397 563 124 177 c380 542 631 960 1068
1777 318 596 438 765 544 765 50 0 120 -48 230 -160 119 -120 204 -182 330
-241 153 -70 385 -141 560 -170 103 -17 323 -14 440 6 368 63 743 287 1002
598 229 275 352 553 429 968 25 131 25 455 1 594 -87 498 -337 911 -699 1151
-157 105 -388 197 -613 244 -115 24 -385 35 -502 20z m342 -755 c142 -25 334
-117 459 -221 207 -170 330 -515 296 -829 -31 -292 -137 -524 -320 -698 -207
-198 -434 -289 -725 -291 -283 -1 -518 86 -708 264 -178 167 -254 334 -272
600 -28 412 235 848 643 1063 209 110 421 148 627 112z m-8166 -40 c239 -46
453 -165 632 -352 184 -193 287 -402 319 -651 20 -160 -8 -365 -69 -506 -55
-125 -185 -274 -313 -359 -196 -129 -458 -193 -694 -167 -472 50 -830 379
-923 847 -38 194 -36 345 10 528 42 170 159 359 283 456 126 98 304 182 441
208 79 14 226 12 314 -4z"/>
</g>
</svg>
